<svg width="39" height="41" viewBox="0 0 39 41" fill="none" xmlns="http://www.w3.org/2000/svg">
<path d="M1.875 17.5834C1.87486 17.0136 1.99903 16.4507 2.23883 15.9339C2.47864 15.4171 2.82831 14.9588 3.26346 14.591L16.9718 2.843C17.6787 2.24553 18.5744 1.91772 19.5 1.91772C20.4256 1.91772 21.3213 2.24553 22.0282 2.843L35.7365 14.591C36.1717 14.9588 36.5214 15.4171 36.7612 15.9339C37.001 16.4507 37.1251 17.0136 37.125 17.5834V35.2084C37.125 36.2471 36.7124 37.2434 35.9778 37.9779C35.2433 38.7124 34.2471 39.125 33.2083 39.125H5.79167C4.7529 39.125 3.75668 38.7124 3.02217 37.9779C2.28765 37.2434 1.875 36.2471 1.875 35.2084V17.5834Z" stroke="#0DB981" stroke-width="2" stroke-linecap="round" stroke-linejoin="round"/>
</svg>
